<?xml version="1.0" standalone="no"?>
<!DOCTYPE svg PUBLIC "-//W3C//DTD SVG 20010904//EN"
 "http://www.w3.org/TR/2001/REC-SVG-20010904/DTD/svg10.dtd">
<svg version="1.0" xmlns="http://www.w3.org/2000/svg"
 width="249.000000pt" height="249.000000pt" viewBox="0 0 249.000000 249.000000"
 preserveAspectRatio="xMidYMid meet">
<metadata>
Created by potrace 1.14, written by Peter Selinger 2001-2017
</metadata>
<g transform="translate(0.000000,249.000000) scale(0.100000,-0.100000)"
fill="#000000" stroke="none">
<path d="M996 2481 c-4 -7 -8 -68 -8 -136 0 -69 -1 -125 -2 -125 -1 0 -29 13
-61 28 -37 18 -77 29 -111 31 -49 2 -52 1 -62 -28 -6 -17 -9 -84 -8 -153 3
-118 6 -144 25 -215 6 -22 5 -37 -3 -49 -11 -15 -22 -10 -105 50 -136 99 -199
137 -206 126 -11 -17 113 -125 258 -226 26 -18 29 -25 30 -92 1 -40 -1 -72 -4
-72 -4 0 -53 13 -110 30 -57 16 -119 34 -136 39 -18 5 -35 6 -38 1 -8 -14 148
-77 272 -110 32 -8 47 -19 59 -42 26 -49 98 -111 185 -157 44 -24 77 -46 74
-51 -3 -4 -17 -11 -32 -14 -79 -19 -293 -93 -355 -123 -88 -42 -251 -150 -299
-197 -76 -75 -73 -125 12 -174 50 -29 54 -29 98 -17 25 7 63 12 84 10 31 -2
42 3 62 26 20 24 22 34 14 61 -5 17 -13 36 -18 41 -31 31 96 145 254 229 56
29 153 68 172 68 7 0 -3 -24 -23 -56 -66 -103 -87 -160 -81 -219 5 -48 3 -54
-26 -85 -18 -19 -44 -49 -58 -67 -43 -53 -206 -176 -335 -250 -68 -41 -94 -71
-94 -113 0 -24 86 -100 114 -100 12 0 27 -4 35 -9 23 -15 68 8 118 61 27 28
55 58 64 67 65 68 159 216 159 251 0 16 15 41 41 68 46 47 51 49 69 27 14 -16
67 -33 118 -37 24 -2 32 -7 33 -23 4 -54 -4 -95 -30 -145 -25 -48 -44 -108
-57 -176 -6 -33 -50 -163 -79 -233 -17 -42 -25 -77 -23 -105 3 -38 6 -43 53
-67 63 -32 144 -34 175 -4 25 26 30 57 35 218 2 73 11 168 19 212 15 76 14
119 -3 154 -4 9 -7 23 -6 31 1 8 3 27 3 43 l2 27 67 -55 c79 -65 215 -134 328
-166 85 -24 239 -32 320 -15 61 12 147 63 177 106 60 83 34 217 -51 273 -33
22 -49 26 -103 23 -132 -5 -211 -98 -178 -209 6 -23 23 -54 37 -69 l26 -27
-24 -5 c-27 -7 -119 -2 -164 8 -63 15 -182 61 -225 88 -25 15 -54 32 -65 37
-11 5 -42 30 -68 56 -48 45 -48 47 -32 71 68 104 96 173 89 219 -13 90 -15
145 -5 146 14 2 21 4 46 13 155 59 317 141 371 189 l43 38 108 2 c61 1 107 6
106 11 -3 10 -7 11 -58 21 -64 11 -80 14 -93 14 -10 1 53 98 78 121 3 3 27 41
53 85 38 66 54 84 87 99 46 20 52 36 13 33 -24 -2 -27 2 -31 37 -9 88 -100
168 -191 168 -45 0 -111 -24 -111 -40 0 -5 -7 -17 -16 -28 -15 -19 -15 -19 -6
1 12 27 13 162 1 206 -6 23 -17 39 -29 42 -68 18 -237 -40 -319 -108 -38 -33
-38 -35 -6 136 36 188 40 229 23 229 -10 0 -52 -105 -63 -160 -1 -3 -7 -25
-15 -50 -18 -60 -18 -61 -25 -92 -16 -78 -48 -105 -50 -41 -1 35 -26 76 -60
99 -49 32 -135 12 -150 -36 -7 -21 -20 -26 -29 -11 -6 8 -7 20 -22 126 -10 76
-10 77 -18 125 -10 56 -20 77 -30 61z m834 -626 c10 -3 33 -18 50 -34 45 -39
31 -61 -57 -91 -37 -12 -73 -25 -79 -27 -24 -9 -21 28 6 99 16 40 30 84 30 98
0 24 1 24 16 -7 9 -18 24 -35 34 -38z m-8 -237 c-52 -75 -106 -129 -120 -120
-10 7 -8 18 7 53 12 24 21 54 21 67 0 23 23 37 76 46 15 3 29 8 33 11 3 4 7 2
9 -4 2 -6 -10 -30 -26 -53z m-165 -185 c-8 -10 -31 -27 -49 -37 -29 -17 -27
-14 12 21 44 40 69 50 37 16z"/>
</g>
</svg>
